<svg width="1788" height="2034" viewBox="0 0 1788 2034" fill="none" xmlns="http://www.w3.org/2000/svg">
<path opacity="0.02" d="M1578.5 877.615C1654.51 817.758 1639.59 747.056 1622.63 719.188L1389.49 284.114L0.0896606 1148.42L233.223 1583.49C247.142 1613.25 296.509 1662.53 382.626 1621.53C490.273 1570.28 509.642 1613.24 543.058 1636.99C576.473 1660.74 619.018 1678.8 691.53 1598.33C764.041 1517.86 844.201 1456.21 942.704 1478.76C1021.51 1496.8 1074.75 1471.27 1093.21 1459.79C1111.66 1448.31 1158.8 1411.39 1183.7 1328.84C1214.83 1225.65 1304.47 1181.68 1405.4 1154.25C1506.34 1126.83 1513.09 1078.1 1510.71 1035.04C1508.33 991.992 1483.49 952.437 1578.5 877.615Z" fill="black"/>
<path d="M1496.89 784.899C1550.5 718.031 1524.96 661.185 1505.49 641.12L1228.41 321.179L206.681 1348.4L483.759 1668.34C500.992 1690.66 551.86 1722.04 617.478 1669.04C699.501 1602.79 723.762 1635.16 756.445 1648.24C789.127 1661.33 828.523 1667.67 875.406 1584.05C922.289 1500.43 979.09 1431.16 1066.79 1429.47C1136.95 1428.12 1177.49 1395.2 1191.06 1381.56C1204.63 1367.91 1237.92 1326.61 1244.02 1251.29C1251.64 1157.14 1319.7 1100.88 1400.37 1056.26C1481.03 1011.65 1477.89 968.867 1468.03 932.833C1458.17 896.798 1429.88 868.483 1496.89 784.899Z" fill="black"/>
<path d="M1496.89 784.899C1550.5 718.031 1524.96 661.185 1505.49 641.12L1228.41 321.179L206.681 1348.4L483.759 1668.34C500.992 1690.66 551.86 1722.04 617.478 1669.04C699.501 1602.79 723.762 1635.16 756.445 1648.24C789.127 1661.33 828.523 1667.67 875.406 1584.05C922.289 1500.43 979.09 1431.16 1066.79 1429.47C1136.95 1428.12 1177.49 1395.2 1191.06 1381.56C1204.63 1367.91 1237.92 1326.61 1244.02 1251.29C1251.64 1157.14 1319.7 1100.88 1400.37 1056.26C1481.03 1011.65 1477.89 968.867 1468.03 932.833C1458.17 896.798 1429.88 868.483 1496.89 784.899Z" fill="url(#paint0_linear_2116_12)"/>
<path d="M1422.68 291.847C1443.96 206.514 1398.01 167.293 1372.38 158.349L993.736 0.0907372L488.341 1403.86L866.987 1562.12C891.511 1574.14 949.984 1578.55 987.678 1500.08C1034.8 1401.99 1069.71 1419.77 1104.42 1416.24C1139.13 1412.71 1177.16 1399.95 1185.63 1302.69C1194.09 1205.42 1217.28 1116.43 1295.57 1073.81C1358.2 1039.72 1381.42 991.078 1388.13 972.432C1394.84 953.786 1408.14 901.001 1383.23 830.319C1352.09 741.965 1390.67 659.406 1445.3 581.433C1499.93 503.461 1479.83 466.409 1456.4 438.581C1432.98 410.752 1396.08 398.512 1422.68 291.847Z" fill="black"/>
<path d="M1422.68 291.847C1443.96 206.514 1398.01 167.293 1372.38 158.349L993.736 0.0907372L488.341 1403.86L866.987 1562.12C891.511 1574.14 949.984 1578.55 987.678 1500.08C1034.8 1401.99 1069.71 1419.77 1104.42 1416.24C1139.13 1412.71 1177.16 1399.95 1185.63 1302.69C1194.09 1205.42 1217.28 1116.43 1295.57 1073.81C1358.2 1039.72 1381.42 991.078 1388.13 972.432C1394.84 953.786 1408.14 901.001 1383.23 830.319C1352.09 741.965 1390.67 659.406 1445.3 581.433C1499.93 503.461 1479.83 466.409 1456.4 438.581C1432.98 410.752 1396.08 398.512 1422.68 291.847Z" fill="url(#paint1_linear_2116_12)"/>
<path d="M1274.46 674.286C1307.6 593.465 1267.77 547.133 1243.71 534.07L891.981 315.274L193.256 1619.24L295.689 1737.31C318.218 1753.23 375.376 1767.23 423.766 1695.89C484.254 1606.72 516.23 1630.04 551.036 1632.27C585.841 1634.5 828.537 1695.43 896.701 1627.45C963.244 1561.09 954.419 1455.31 1037.84 1426.1C1104.58 1402.73 1134.42 1358.49 1143.7 1341.17C1152.99 1323.85 1173.62 1273.88 1159.04 1199.92C1140.81 1107.48 1190.65 1032.25 1255.7 964.193C1320.76 896.141 1306.15 856.212 1286.96 824.851C1267.76 793.491 1233.03 775.312 1274.46 674.286Z" fill="black"/>
<path d="M1274.46 674.286C1307.6 593.465 1267.77 547.133 1243.71 534.07L891.981 315.274L193.256 1619.24L295.689 1737.31C318.218 1753.23 375.376 1767.23 423.766 1695.89C484.254 1606.72 516.23 1630.04 551.036 1632.27C585.841 1634.5 828.537 1695.43 896.701 1627.45C963.244 1561.09 954.419 1455.31 1037.84 1426.1C1104.58 1402.73 1134.42 1358.49 1143.7 1341.17C1152.99 1323.85 1173.62 1273.88 1159.04 1199.92C1140.81 1107.48 1190.65 1032.25 1255.7 964.193C1320.76 896.141 1306.15 856.212 1286.96 824.851C1267.76 793.491 1233.03 775.312 1274.46 674.286Z" fill="url(#paint2_linear_2116_12)"/>
<defs>
<linearGradient id="paint0_linear_2116_12" x1="2006.16" y1="460.966" x2="693.592" y2="1443.12" gradientUnits="userSpaceOnUse">
<stop stop-color="#9F61EF"/>
<stop offset="0.505208" stop-color="#6F44A7"/>
<stop offset="1" stop-color="#AF7CF2"/>
</linearGradient>
<linearGradient id="paint1_linear_2116_12" x1="1349.42" y1="226.093" x2="866.699" y2="1893.66" gradientUnits="userSpaceOnUse">
<stop stop-color="#613B92"/>
<stop offset="0.505208" stop-color="#9F61EF"/>
<stop offset="1" stop-color="#AF7CF2"/>
</linearGradient>
<linearGradient id="paint2_linear_2116_12" x1="922.874" y1="334.378" x2="716.218" y2="2156.51" gradientUnits="userSpaceOnUse">
<stop stop-color="#613B92"/>
<stop offset="0.505208" stop-color="#9F61EF"/>
<stop offset="1" stop-color="#C7A3F6"/>
</linearGradient>
</defs>
</svg>
